{
  "accessors": [
    {
      "bufferView": 2,
      "componentType": 5126,
      "count": 3091,
      "max": [
        2.5428040027618408,
        2.6146640777587891,
        -0.0043250001035630703
      ],
      "min": [
        -2.7104079723358154,
        -2.6397740840911865,
        -0.27003800868988037
      ],
      "type": "VEC3"
    },
    {
      "bufferView": 2,
      "byteOffset": 37092,
      "componentType": 5126,
      "count": 3091,
      "max": [
        0.95004451274871826,
        0.95108920335769653,
        1
      ],
      "min": [
        -0.92998611927032471,
        -0.94074440002441406,
        -1
      ],
      "type": "VEC3"
    },
    {
      "bufferView": 3,
      "componentType": 5126,
      "count": 3091,
      "max": [
        1,
        1,
        0.1116955578327179,
        1
      ],
      "min": [
        -0.99997216463088989,
        -1,
        -0.11799189448356628,
        -1
      ],
      "type": "VEC4"
    },
    {
      "bufferView": 1,
      "componentType": 5126,
      "count": 3091,
      "max": [
        1,
        1
      ],
      "min": [
        0,
        0.0099999997764825821
      ],
      "type": "VEC2"
    },
    {
      "bufferView": 0,
      "componentType": 5125,
      "count": 16896,
      "max": [
        3090
      ],
      "min": [
        0
      ],
      "type": "SCALAR"
    },
    {
      "bufferView": 2,
      "byteOffset": 74184,
      "componentType": 5126,
      "count": 27,
      "max": [
        2.228287935256958,
        2.0794761180877686,
        -0.075228996574878693
      ],
      "min": [
        -2.4248960018157959,
        -2.3132839202880859,
        -0.10075200349092484
      ],
      "type": "VEC3"
    },
    {
      "bufferView": 1,
      "byteOffset": 24728,
      "componentType": 5126,
      "count": 27,
      "max": [
        0,
        0
      ],
      "min": [
        0,
        0
      ],
      "type": "VEC2"
    },
    {
      "bufferView": 0,
      "byteOffset": 67584,
      "componentType": 5125,
      "count": 28,
      "max": [
        26
      ],
      "min": [
        0
      ],
      "type": "SCALAR"
    },
    {
      "bufferView": 2,
      "byteOffset": 74508,
      "componentType": 5126,
      "count": 21880,
      "max": [
        2.2427608966827393,
        2.4081580638885498,
        0.40019801259040833
      ],
      "min": [
        -2.4405999183654785,
        -2.3522319793701172,
        -0.10511100292205811
      ],
      "type": "VEC3"
    },
    {
      "bufferView": 2,
      "byteOffset": 337068,
      "componentType": 5126,
      "count": 21880,
      "max": [
        0.99952012300491333,
        0.99985074996948242,
        0.99999868869781494
      ],
      "min": [
        -0.9994041919708252,
        -0.99915009737014771,
        -0.99959284067153931
      ],
      "type": "VEC3"
    },
    {
      "bufferView": 3,
      "byteOffset": 49456,
      "componentType": 5126,
      "count": 21880,
      "max": [
        0.99994921684265137,
        0.99996131658554077,
        0.99990314245223999,
        1
      ],
      "min": [
        -0.99998021125793457,
        -0.99994808435440063,
        -0.99943387508392334,
        -1
      ],
      "type": "VEC4"
    },
    {
      "bufferView": 1,
      "byteOffset": 24944,
      "componentType": 5126,
      "count": 21880,
      "max": [
        1,
        0.99537497758865356
      ],
      "min": [
        0,
        0.0017190000507980585
      ],
      "type": "VEC2"
    },
    {
      "bufferView": 0,
      "byteOffset": 67696,
      "componentType": 5125,
      "count": 118335,
      "max": [
        21879
      ],
      "min": [
        0
      ],
      "type": "SCALAR"
    }
  ],
  "asset": {
    "extras": {
      "author": "sunnytarawade (https://sketchfab.com/sunnytarawade)",
      "license": "CC-BY-4.0 (http://creativecommons.org/licenses/by/4.0/)",
      "source": "https://sketchfab.com/3d-models/pizza1-1-4f590098666a4d7598d8aa72c0380b92",
      "title": "Pizza1 1"
    },
    "generator": "Sketchfab-5.38.0",
    "version": "2.0"
  },
  "bufferViews": [
    {
      "buffer": 0,
      "byteLength": 541036,
      "byteOffset": 0,
      "name": "floatBufferViews",
      "target": 34963
    },
    {
      "buffer": 0,
      "byteLength": 199984,
      "byteOffset": 541036,
      "byteStride": 8,
      "name": "floatBufferViews",
      "target": 34962
    },
    {
      "buffer": 0,
      "byteLength": 599628,
      "byteOffset": 741020,
      "byteStride": 12,
      "name": "floatBufferViews",
      "target": 34962
    },
    {
      "buffer": 0,
      "byteLength": 399536,
      "byteOffset": 1340648,
      "byteStride": 16,
      "name": "floatBufferViews",
      "target": 34962
    }
  ],
  "buffers": [
    {
      "byteLength": 1740184,
      "uri": "scene.bin"
    }
  ],
  "extensionsUsed": [
    "KHR_materials_unlit"
  ],
  "images": [
    {
      "uri": "textures/Pizza_1_baseColor.jpeg"
    }
  ],
  "materials": [
    {
      "doubleSided": true,
      "emissiveFactor": [
        0,
        0,
        0
      ],
      "extensions": {
        "KHR_materials_unlit": {}
      },
      "name": "BlackDish",
      "pbrMetallicRoughness": {
        "baseColorFactor": [
          0,
          0,
          0,
          1
        ],
        "metallicFactor": 0,
        "roughnessFactor": 1
      }
    },
    {
      "doubleSided": true,
      "emissiveFactor": [
        0,
        0,
        0
      ],
      "extensions": {
        "KHR_materials_unlit": {}
      },
      "name": "Pizza_1",
      "pbrMetallicRoughness": {
        "baseColorFactor": [
          1,
          1,
          1,
          1
        ],
        "baseColorTexture": {
          "index": 0,
          "texCoord": 0
        },
        "metallicFactor": 0,
        "roughnessFactor": 1
      }
    }
  ],
  "meshes": [
    {
      "primitives": [
        {
          "attributes": {
            "NORMAL": 1,
            "POSITION": 0,
            "TANGENT": 2,
            "TEXCOORD_0": 3
          },
          "indices": 4,
          "material": 0,
          "mode": 4
        }
      ]
    },
    {
      "primitives": [
        {
          "attributes": {
            "POSITION": 5,
            "TEXCOORD_0": 6
          },
          "indices": 7,
          "material": 1,
          "mode": 1
        }
      ]
    },
    {
      "primitives": [
        {
          "attributes": {
            "NORMAL": 9,
            "POSITION": 8,
            "TANGENT": 10,
            "TEXCOORD_0": 11
          },
          "indices": 12,
          "material": 1,
          "mode": 4
        }
      ]
    }
  ],
  "nodes": [
    {
      "children": [
        1
      ],
      "name": "RootNode (gltf orientation matrix)",
      "rotation": [
        -0.70710678118654746,
        -0,
        -0,
        0.70710678118654757
      ]
    },
    {
      "children": [
        2
      ],
      "name": "RootNode (model correction matrix)"
    },
    {
      "children": [
        3,
        4,
        5
      ],
      "name": "Pizza1_1.obj.cleaner.materialmerger.gles"
    },
    {
      "mesh": 0,
      "name": ""
    },
    {
      "mesh": 1,
      "name": ""
    },
    {
      "mesh": 2,
      "name": ""
    }
  ],
  "samplers": [
    {
      "magFilter": 9729,
      "minFilter": 9987,
      "wrapS": 10497,
      "wrapT": 10497
    }
  ],
  "scene": 0,
  "scenes": [
    {
      "name": "OSG_Scene",
      "nodes": [
        0
      ]
    }
  ],
  "textures": [
    {
      "sampler": 0,
      "source": 0
    }
  ]
}

