{
  "accessors": [
    {
      "bufferView": 2,
      "componentType": 5126,
      "count": 975,
      "max": [
        0.23573312163352966,
        0.23745237290859222,
        0.009272298775613308
      ],
      "min": [
        -0.23917165398597717,
        -0.23745240271091461,
        -0.0072289528325200081
      ],
      "type": "VEC3"
    },
    {
      "bufferView": 2,
      "byteOffset": 11700,
      "componentType": 5126,
      "count": 975,
      "max": [
        0.99757295846939087,
        0.99757444858551025,
        1
      ],
      "min": [
        -0.99757295846939087,
        -0.99757552146911621,
        -1
      ],
      "type": "VEC3"
    },
    {
      "bufferView": 3,
      "componentType": 5126,
      "count": 975,
      "max": [
        0.98783373832702637,
        0.98734623193740845,
        0.99757343530654907,
        1
      ],
      "min": [
        -0.98783314228057861,
        -0.9878343939781189,
        -0.74867087602615356,
        1
      ],
      "type": "VEC4"
    },
    {
      "bufferView": 1,
      "componentType": 5126,
      "count": 975,
      "max": [
        0.97927570343017578,
        0.45636111497879028
      ],
      "min": [
        0.0049325674772262573,
        0.0047634951770305634
      ],
      "type": "VEC2"
    },
    {
      "bufferView": 0,
      "componentType": 5125,
      "count": 4224,
      "max": [
        974
      ],
      "min": [
        0
      ],
      "type": "SCALAR"
    },
    {
      "bufferView": 2,
      "byteOffset": 23400,
      "componentType": 5126,
      "count": 2746,
      "max": [
        0.073649205267429352,
        0.045489653944969177,
        0.15945300459861755
      ],
      "min": [
        -0.12184888869524002,
        -0.088859438896179199,
        0.12655903398990631
      ],
      "type": "VEC3"
    },
    {
      "bufferView": 2,
      "byteOffset": 56352,
      "componentType": 5126,
      "count": 2746,
      "max": [
        0.99694603681564331,
        0.99856245517730713,
        0.99999016523361206
      ],
      "min": [
        -0.99344342947006226,
        -0.99539464712142944,
        -0.99999016523361206
      ],
      "type": "VEC3"
    },
    {
      "bufferView": 3,
      "byteOffset": 15600,
      "componentType": 5126,
      "count": 2746,
      "max": [
        0.99217140674591064,
        0.99557036161422729,
        0.99960786104202271,
        1
      ],
      "min": [
        -0.99895542860031128,
        -0.9889073371887207,
        -0.9994664192199707,
        -1
      ],
      "type": "VEC4"
    },
    {
      "bufferView": 1,
      "byteOffset": 7800,
      "componentType": 5126,
      "count": 2746,
      "max": [
        0.99953979253768921,
        0.98961114883422852
      ],
      "min": [
        0.00046021214802749455,
        0.00046021214802749455
      ],
      "type": "VEC2"
    },
    {
      "bufferView": 0,
      "byteOffset": 16896,
      "componentType": 5125,
      "count": 12000,
      "max": [
        2745
      ],
      "min": [
        0
      ],
      "type": "SCALAR"
    },
    {
      "bufferView": 2,
      "byteOffset": 89304,
      "componentType": 5126,
      "count": 1585,
      "max": [
        0.09188283234834671,
        0.13747985661029816,
        0.083566166460514069
      ],
      "min": [
        -0.12935541570186615,
        -0.00027754000620916486,
        -0.083234451711177826
      ],
      "type": "VEC3"
    },
    {
      "bufferView": 2,
      "byteOffset": 108324,
      "componentType": 5126,
      "count": 1585,
      "max": [
        0.99694377183914185,
        1,
        0.99996829032897949
      ],
      "min": [
        -0.99965262413024902,
        -0.99984049797058105,
        -0.99739623069763184
      ],
      "type": "VEC3"
    },
    {
      "bufferView": 3,
      "byteOffset": 59536,
      "componentType": 5126,
      "count": 1585,
      "max": [
        0.99918097257614136,
        0.55573177337646484,
        0.99633187055587769,
        1
      ],
      "min": [
        -0.99999105930328369,
        -0.99999743700027466,
        -0.94419533014297485,
        1
      ],
      "type": "VEC4"
    },
    {
      "bufferView": 1,
      "byteOffset": 29768,
      "componentType": 5126,
      "count": 1585,
      "max": [
        0.76602679491043091,
        0.88929659128189087
      ],
      "min": [
        0.00046021214802749455,
        0.00046021214802749455
      ],
      "type": "VEC2"
    },
    {
      "bufferView": 0,
      "byteOffset": 64896,
      "componentType": 5125,
      "count": 8736,
      "max": [
        1584
      ],
      "min": [
        0
      ],
      "type": "SCALAR"
    },
    {
      "bufferView": 2,
      "byteOffset": 127344,
      "componentType": 5126,
      "count": 295,
      "max": [
        -0.080267444252967834,
        0.063029184937477112,
        0.16859602928161621
      ],
      "min": [
        -0.10541980713605881,
        0.037296619266271591,
        0.13257414102554321
      ],
      "type": "VEC3"
    },
    {
      "bufferView": 2,
      "byteOffset": 130884,
      "componentType": 5126,
      "count": 295,
      "max": [
        0.98284232616424561,
        0.99387967586517334,
        0.99925971031188965
      ],
      "min": [
        -0.98349720239639282,
        -0.99571526050567627,
        -0.98840594291687012
      ],
      "type": "VEC3"
    },
    {
      "bufferView": 3,
      "byteOffset": 84896,
      "componentType": 5126,
      "count": 295,
      "max": [
        0.85762780904769897,
        0.99575561285018921,
        0.92621350288391113,
        1
      ],
      "min": [
        -0.91157442331314087,
        -0.99883425235748291,
        -0.9977109432220459,
        -1
      ],
      "type": "VEC4"
    },
    {
      "bufferView": 1,
      "byteOffset": 42448,
      "componentType": 5126,
      "count": 295,
      "max": [
        0.92810565233230591,
        0.84768617153167725
      ],
      "min": [
        0.60811322927474976,
        0.50471800565719604
      ],
      "type": "VEC2"
    },
    {
      "bufferView": 0,
      "byteOffset": 99840,
      "componentType": 5125,
      "count": 1458,
      "max": [
        294
      ],
      "min": [
        0
      ],
      "type": "SCALAR"
    }
  ],
  "asset": {
    "extras": {
      "author": "sakislaspas (https://sketchfab.com/sakislaspas)",
      "license": "CC-BY-NC-4.0 (http://creativecommons.org/licenses/by-nc/4.0/)",
      "source": "https://sketchfab.com/3d-models/dessert-64e8d14eb5af43a38b7fc3db7cf83ddf",
      "title": "Dessert"
    },
    "generator": "Sketchfab-9.25.1",
    "version": "2.0"
  },
  "bufferViews": [
    {
      "buffer": 0,
      "byteLength": 105672,
      "byteOffset": 0,
      "name": "floatBufferViews",
      "target": 34963
    },
    {
      "buffer": 0,
      "byteLength": 44808,
      "byteOffset": 105672,
      "byteStride": 8,
      "name": "floatBufferViews",
      "target": 34962
    },
    {
      "buffer": 0,
      "byteLength": 134424,
      "byteOffset": 150480,
      "byteStride": 12,
      "name": "floatBufferViews",
      "target": 34962
    },
    {
      "buffer": 0,
      "byteLength": 89616,
      "byteOffset": 284904,
      "byteStride": 16,
      "name": "floatBufferViews",
      "target": 34962
    }
  ],
  "buffers": [
    {
      "byteLength": 374520,
      "uri": "scene.bin"
    }
  ],
  "images": [
    {
      "uri": "textures/Scene_-_Root_baseColor.png"
    },
    {
      "uri": "textures/Scene_-_Root_metallicRoughness.png"
    },
    {
      "uri": "textures/Scene_-_Root_normal.png"
    }
  ],
  "materials": [
    {
      "doubleSided": true,
      "name": "Scene_-_Root",
      "normalTexture": {
        "index": 2,
        "scale": 1,
        "texCoord": 0
      },
      "occlusionTexture": {
        "index": 1,
        "strength": 1,
        "texCoord": 0
      },
      "pbrMetallicRoughness": {
        "baseColorFactor": [
          1,
          1,
          1,
          1
        ],
        "baseColorTexture": {
          "index": 0,
          "texCoord": 0
        },
        "metallicFactor": 0,
        "metallicRoughnessTexture": {
          "index": 1,
          "texCoord": 0
        },
        "roughnessFactor": 1
      }
    }
  ],
  "meshes": [
    {
      "name": "Plate__0",
      "primitives": [
        {
          "attributes": {
            "NORMAL": 1,
            "POSITION": 0,
            "TANGENT": 2,
            "TEXCOORD_0": 3
          },
          "indices": 4,
          "material": 0,
          "mode": 4
        }
      ]
    },
    {
      "name": "poura__0",
      "primitives": [
        {
          "attributes": {
            "NORMAL": 6,
            "POSITION": 5,
            "TANGENT": 7,
            "TEXCOORD_0": 8
          },
          "indices": 9,
          "material": 0,
          "mode": 4
        }
      ]
    },
    {
      "name": "Dessert_low__0",
      "primitives": [
        {
          "attributes": {
            "NORMAL": 11,
            "POSITION": 10,
            "TANGENT": 12,
            "TEXCOORD_0": 13
          },
          "indices": 14,
          "material": 0,
          "mode": 4
        }
      ]
    },
    {
      "name": "Sphere__0",
      "primitives": [
        {
          "attributes": {
            "NORMAL": 16,
            "POSITION": 15,
            "TANGENT": 17,
            "TEXCOORD_0": 18
          },
          "indices": 19,
          "material": 0,
          "mode": 4
        }
      ]
    }
  ],
  "nodes": [
    {
      "children": [
        1
      ],
      "name": "RootNode (gltf orientation matrix)",
      "rotation": [
        -0.70710678118654746,
        -0,
        -0,
        0.70710678118654757
      ]
    },
    {
      "children": [
        2
      ],
      "name": "RootNode (model correction matrix)"
    },
    {
      "children": [
        3
      ],
      "matrix": [
        1,
        0,
        0,
        0,
        0,
        0,
        1,
        0,
        0,
        -1,
        0,
        0,
        0,
        0,
        0,
        1
      ],
      "name": "2aa25bc4bb024aa4a369b17c503415f3.fbx"
    },
    {
      "children": [
        4,
        6,
        8,
        10
      ],
      "name": "RootNode"
    },
    {
      "children": [
        5
      ],
      "matrix": [
        100,
        0,
        0,
        0,
        0,
        -1.6292067939183141e-05,
        -99.999999999998678,
        0,
        0,
        99.999999999998678,
        -1.6292067939183141e-05,
        0,
        0,
        0,
        0,
        1
      ],
      "name": "Plate"
    },
    {
      "mesh": 0,
      "name": "Plate__0"
    },
    {
      "children": [
        7
      ],
      "matrix": [
        100,
        0,
        0,
        0,
        0,
        -1.6292067939183141e-05,
        -99.999999999998678,
        0,
        0,
        99.999999999998678,
        -1.6292067939183141e-05,
        0,
        0,
        0,
        0,
        1
      ],
      "name": "poura"
    },
    {
      "mesh": 1,
      "name": "poura__0"
    },
    {
      "children": [
        9
      ],
      "matrix": [
        100,
        0,
        0,
        0,
        0,
        99.999999999998664,
        1.6292067073209114e-05,
        0,
        0,
        -1.6292067073209114e-05,
        99.999999999998664,
        0,
        0,
        0,
        0,
        1
      ],
      "name": "Dessert_low"
    },
    {
      "mesh": 2,
      "name": "Dessert_low__0"
    },
    {
      "children": [
        11
      ],
      "matrix": [
        100,
        0,
        0,
        0,
        0,
        -1.6292067939183141e-05,
        -99.999999999998678,
        0,
        0,
        99.999999999998678,
        -1.6292067939183141e-05,
        0,
        0,
        0,
        0,
        1
      ],
      "name": "Sphere"
    },
    {
      "mesh": 3,
      "name": "Sphere__0"
    }
  ],
  "samplers": [
    {
      "magFilter": 9729,
      "minFilter": 9987,
      "wrapS": 10497,
      "wrapT": 10497
    }
  ],
  "scene": 0,
  "scenes": [
    {
      "name": "OSG_Scene",
      "nodes": [
        0
      ]
    }
  ],
  "textures": [
    {
      "sampler": 0,
      "source": 0
    },
    {
      "sampler": 0,
      "source": 1
    },
    {
      "sampler": 0,
      "source": 2
    }
  ]
}

